<?xml version="1.0" encoding="UTF-8"?>
<svg xmlns="http://www.w3.org/2000/svg" width="800.000000000002728" height="800.000000000001819" viewBox="0 0 800.000000000002728 800.000000000001819">
  <defs>
    <style>
      .cls-1, .cls-2, .cls-3, .cls-4 {
        fill: #fff;
      }

      .cls-5, .cls-6, .cls-7, .cls-8, .cls-9, .cls-10, .cls-11 {
        fill: #101050;
      }

      .cls-12 {
        fill: #2fd2b7;
      }

      .cls-2, .cls-6, .cls-7, .cls-8, .cls-3, .cls-13, .cls-14, .cls-11, .cls-15 {
        stroke: #101050;
      }

      .cls-2, .cls-6, .cls-8, .cls-9, .cls-3, .cls-4, .cls-16, .cls-13, .cls-17, .cls-15, .cls-18 {
        stroke-width: 2px;
      }

      .cls-2, .cls-7, .cls-8, .cls-9, .cls-10, .cls-14, .cls-11, .cls-17, .cls-15 {
        stroke-miterlimit: 10;
      }

      .cls-6, .cls-7, .cls-3, .cls-4, .cls-16, .cls-13, .cls-17, .cls-15 {
        stroke-linecap: round;
      }

      .cls-6, .cls-3, .cls-4, .cls-16, .cls-13, .cls-18, .cls-19 {
        stroke-linejoin: round;
      }

      .cls-7, .cls-10 {
        stroke-width: 4px;
      }

      .cls-9, .cls-10, .cls-16, .cls-17 {
        stroke: #fff;
      }

      .cls-4, .cls-18 {
        stroke: #101054;
      }

      .cls-16, .cls-13, .cls-17, .cls-15 {
        fill: none;
      }

      .cls-14, .cls-18 {
        fill: #101054;
      }

      .cls-19 {
        fill: #0d1345;
        stroke: #0d1345;
      }
    </style>
  </defs>
  <g id="Character-2" data-name="Character">
    <path class="cls-8" d="m600.766593751507571,76.512950676269611c7.591179856913186.574675342968476,13.578570939078418,6.976452619921474,13.578570939078418,14.781432913173376l.002508533561013,4.22157873996548-.000000033976903,570.124583969487503.000000033976903,3.306369690222709v7.831087203417155c0,23.696179283576384-19.209548768541936,42.905728052106497-42.90572805211923,42.905728052106497h-90.665679889090825V76.512950676269611h119.990328468570624Z"/>
    <g>
      <path class="cls-2" d="m702.14567793158858,178.027471131343191l-.151893599578216,207.684053833883809c0,7.136311618114632-5.845725731743187,12.982222698970872-12.997328651823409,12.982222698970872l-88.65813475781124-.075993137066689v-233.663512510112923l88.825226984798064.075807787944541c7.136311618113723,0,12.982130024414801,5.861109708274853,12.982130024414801,12.99742132638039Z"/>
      <g>
        <polygon class="cls-5" points="600.838110502440031 239.478087344486994 600.838110502440031 186.636290469486994 629.657934721190031 186.666075625736994 700.202856596190031 186.726134219486994 700.157934721190031 239.537657656986994 600.838110502440031 239.478087344486994"/>
        <path class="cls-5" d="m601.338324125486906,187.136610904057306l28.319061279296875.02935791015625,70.044952392578125.0599365234375-.04388427734375,51.811538696289062-98.32012939453125-.05938720703125v-51.841445922851562m-1-1.00103759765625v53.841873168945312l100.31927490234375.06060791015625.04559326171875-53.811294555664062-71.044952392578125-.060791015625-29.319915771484375-.0303955078125h0Z"/>
      </g>
      <polygon class="cls-2" points="630.751423099227395 258.699005206887705 630.721025844397445 298.647485269283607 600.338320922375715 298.617088014455476 600.338320922375715 258.668607952070488 630.751423099227395 258.699005206887705"/>
      <path class="cls-11" d="m616.281310381191361,278.559348207036237c0,1.9283721904103-.774388601640567,3.659347573538071-2.034669907739044,4.919536205082295-1.260281306100296,1.260373980645454-2.991256689228067,2.034762582296025-4.904337577662773,2.034762582296025h-9.003981973413829v-13.893213598224065h8.988783346005221c3.84145307882136,0,6.954206112810425,3.09736905745558,6.954206112810425,6.938914810845745Z"/>
    </g>
    <path class="cls-2" d="m588.536553482128511,90.152631521856165l.03889389759297.038814844946501c-.362693500223941-.025850212418845-.712422367919316-.038814844946501-1.075036815508611-.038814844946501h1.03614291791564Z"/>
    <rect class="cls-5" x="577.463463620565562" y="513.383559004613744" width="20.120745617324246" height="162.444683539390098"/>
    <path class="cls-2" d="m599.657294959595674,76.472898782245466c-8.085669839760158,0-14.661195659014084,6.642251785267035-14.661195659014084,14.821484807197521v585.483889024999371c0,23.695711998325351-19.205168686700745,42.900880685027914-42.900880685014272,42.900880685027914h-224.087084179562225c-23.60223038823915,0-42.900962257108404-19.298650296797859-42.900962257108404-42.900880685027914V94.836080401505569c0-10.103763237210842,8.259499954143394-18.363181619260104,18.363263191342412-18.363181619260104h306.186859589356573Z"/>
    <g>
      <path class="cls-1" d="m496.634968497263799,95.058696769204289h.000000017498678c.000000010030817,11.37966907718328-9.737446220382481,21.154648167938831-21.638769400919955,21.154648168087078l-89.889959094212827.000000001100489c-11.90132317636926.000000000145519-21.638769407041764-9.774979095988783-21.63876940148657-21.154648169187567h0l-.00659170945255.001296433741118h-46.422373288723975c-13.517017952614879,0-24.523938654692756,10.891604689770247-24.523938654692756,24.267009138414323v556.342596565240456c0,13.389679159902698,11.006920702077878,24.267009138426147,24.523938654692756,24.267009138426147h226.024159318725651c13.517017952614879,0,24.523938654694575-10.877329978523449,24.523938654694575-24.267009138426147V119.32700234135973c0-13.375404448644076-11.006920702079697-24.267009138414323-24.523938654694575-24.267009138414323h-46.422373288722156l-.005323152706296-.001296433741118Z"/>
      <path class="cls-5" d="m543.062877946602384,700.936468676287404h-6.42919921875c-.55224609375,0-1-.44775390625-1-1s.44775390625-1,1-1h6.42919921875c.505859375,0,1.0078125-.01611328125,1.50634765625-.04736328125.5576171875-.037109375,1.0263671875.38427734375,1.06103515625.93505859375.03466796875.55126953125-.3837890625,1.0263671875-.93505859375,1.06103515625-.54052734375.0341796875-1.08447265625.05126953125-1.63232421875.05126953125Zm-14.42919921875,0h-8c-.55224609375,0-1-.44775390625-1-1s.44775390625-1,1-1h8c.55224609375,0,1,.44775390625,1,1s-.44775390625,1-1,1Zm-16,0h-8c-.55224609375,0-1-.44775390625-1-1s.44775390625-1,1-1h8c.55224609375,0,1,.44775390625,1,1s-.44775390625,1-1,1Zm-16,0h-8c-.55224609375,0-1-.44775390625-1-1s.44775390625-1,1-1h8c.55224609375,0,1,.44775390625,1,1s-.44775390625,1-1,1Zm-16,0h-8c-.55224609375,0-1-.44775390625-1-1s.44775390625-1,1-1h8c.55224609375,0,1,.44775390625,1,1s-.44775390625,1-1,1Zm-16,0h-8c-.55224609375,0-1-.44775390625-1-1s.44775390625-1,1-1h8c.55224609375,0,1,.44775390625,1,1s-.44775390625,1-1,1Zm-16,0h-8c-.55224609375,0-1-.44775390625-1-1s.44775390625-1,1-1h8c.55224609375,0,1,.44775390625,1,1s-.44775390625,1-1,1Zm-16,0h-8c-.55224609375,0-1-.44775390625-1-1s.44775390625-1,1-1h8c.55224609375,0,1,.44775390625,1,1s-.44775390625,1-1,1Zm-16,0h-8c-.55224609375,0-1-.44775390625-1-1s.44775390625-1,1-1h8c.55224609375,0,1,.44775390625,1,1s-.44775390625,1-1,1Zm-16,0h-8c-.55224609375,0-1-.44775390625-1-1s.44775390625-1,1-1h8c.55224609375,0,1,.44775390625,1,1s-.44775390625,1-1,1Zm-16,0h-8c-.55224609375,0-1-.44775390625-1-1s.44775390625-1,1-1h8c.55224609375,0,1,.44775390625,1,1s-.44775390625,1-1,1Zm-16,0h-8c-.55224609375,0-1-.44775390625-1-1s.44775390625-1,1-1h8c.55224609375,0,1,.44775390625,1,1s-.44775390625,1-1,1Zm-16,0h-8c-.55224609375,0-1-.44775390625-1-1s.44775390625-1,1-1h8c.55224609375,0,1,.44775390625,1,1s-.44775390625,1-1,1Zm-16,0h-8c-.55224609375,0-1-.44775390625-1-1s.44775390625-1,1-1h8c.55224609375,0,1,.44775390625,1,1s-.44775390625,1-1,1Zm-16,0h-3.59521484375c-1.5302734375,0-3.0634765625-.1357421875-4.556640625-.4033203125-.5439453125-.09765625-.9052734375-.6171875-.80810546875-1.16064453125.09765625-.54345703125.61865234375-.90771484375,1.16064453125-.80810546875,1.37744140625.2470703125,2.79150390625.3720703125,4.2041015625.3720703125h3.59521484375c.55224609375,0,1,.44775390625,1,1s-.44775390625,1-1,1Zm231.76220703125-1.82470703125c-.39453125,0-.767578125-.23486328125-.92626953125-.6220703125-.208984375-.51123046875.0361328125-1.09521484375.54736328125-1.30419921875,2.37451171875-.97021484375,4.5654296875-2.3154296875,6.51171875-3.9970703125.41748046875-.3623046875,1.048828125-.3154296875,1.41064453125.1025390625.36083984375.41796875.31494140625,1.04931640625-.10302734375,1.41015625-2.11083984375,1.82470703125-4.48681640625,3.283203125-7.0625,4.3359375-.1240234375.05029296875-.251953125.07470703125-.3779296875.07470703125Zm-247.24462890625-1.22119140625c-.1630859375,0-.328125-.03955078125-.48095703125-.1240234375-2.44091796875-1.3427734375-4.6337890625-3.06396484375-6.517578125-5.11572265625-.37353515625-.40673828125-.3466796875-1.0390625.06005859375-1.41259765625.40673828125-.37451171875,1.0400390625-.34765625,1.41259765625.06005859375,1.7373046875,1.89111328125,3.7587890625,3.47802734375,6.0087890625,4.71630859375.48388671875.26611328125.66064453125.8740234375.39404296875,1.35791015625-.18212890625.3310546875-.52392578125.51806640625-.876953125.51806640625Zm259.12939453125-9.0615234375c-.171875,0-.34619140625-.04443359375-.50537109375-.1376953125-.47607421875-.27978515625-.6357421875-.892578125-.35595703125-1.36865234375,1.30322265625-2.21875,2.21875-4.61669921875,2.7216796875-7.126953125.1083984375-.54150390625.63427734375-.8935546875,1.1767578125-.7841796875.54150390625.1083984375.892578125.63525390625.7841796875,1.1767578125-.54638671875,2.7294921875-1.54150390625,5.3359375-2.9580078125,7.7470703125-.18603515625.3173828125-.5205078125.49365234375-.86328125.49365234375Zm-269.74755859375-2.5185546875c-.384765625,0-.75146484375-.2236328125-.916015625-.59814453125-1.12158203125-2.55322265625-1.802734375-5.259765625-2.02392578125-8.04443359375-.04345703125-.55029296875.3671875-1.0322265625.91796875-1.076171875.55517578125-.0419921875,1.03173828125.3681640625,1.076171875.91796875.203125,2.56103515625.8291015625,5.05029296875,1.86083984375,7.39794921875.22216796875.505859375-.0078125,1.095703125-.51318359375,1.31787109375-.130859375.0576171875-.267578125.0849609375-.40185546875.0849609375Zm273.0537109375-12.88623046875c-.55224609375,0-1-.44775390625-1-1v-8c0-.55224609375.44775390625-1,1-1s1,.44775390625,1,1v8c0,.55224609375-.44775390625,1-1,1Zm-275.072265625-2.83251953125c-.55224609375,0-1-.44775390625-1-1v-8c0-.55224609375.44775390625-1,1-1s1,.44775390625,1,1v8c0,.55224609375-.44775390625,1-1,1Zm275.072265625-13.16748046875c-.55224609375,0-1-.44775390625-1-1v-8c0-.55224609375.44775390625-1,1-1s1,.44775390625,1,1v8c0,.55224609375-.44775390625,1-1,1Zm-275.072265625-2.83251953125c-.55224609375,0-1-.44775390625-1-1v-8c0-.55224609375.44775390625-1,1-1s1,.44775390625,1,1v8c0,.55224609375-.44775390625,1-1,1Zm275.072265625-13.16748046875c-.55224609375,0-1-.44775390625-1-1v-8c0-.55224609375.44775390625-1,1-1s1,.44775390625,1,1v8c0,.55224609375-.44775390625,1-1,1Zm-275.072265625-2.83251953125c-.55224609375,0-1-.44775390625-1-1v-8c0-.55224609375.44775390625-1,1-1s1,.44775390625,1,1v8c0,.55224609375-.44775390625,1-1,1Zm275.072265625-13.16748046875c-.55224609375,0-1-.44775390625-1-1v-8c0-.55224609375.44775390625-1,1-1s1,.44775390625,1,1v8c0,.55224609375-.44775390625,1-1,1Zm-275.072265625-2.83251953125c-.55224609375,0-1-.44775390625-1-1v-8c0-.55224609375.44775390625-1,1-1s1,.44775390625,1,1v8c0,.55224609375-.44775390625,1-1,1Zm275.072265625-13.16748046875c-.55224609375,0-1-.44775390625-1-1v-8c0-.55224609375.44775390625-1,1-1s1,.44775390625,1,1v8c0,.55224609375-.44775390625,1-1,1Zm-275.072265625-2.83251953125c-.55224609375,0-1-.44775390625-1-1v-8c0-.55224609375.44775390625-1,1-1s1,.44775390625,1,1v8c0,.55224609375-.44775390625,1-1,1Zm275.072265625-13.16748046875c-.55224609375,0-1-.44775390625-1-1v-8c0-.55224609375.44775390625-1,1-1s1,.44775390625,1,1v8c0,.55224609375-.44775390625,1-1,1Zm-275.072265625-2.83251953125c-.55224609375,0-1-.44775390625-1-1v-8c0-.55224609375.44775390625-1,1-1s1,.44775390625,1,1v8c0,.55224609375-.44775390625,1-1,1Zm275.072265625-13.16748046875c-.55224609375,0-1-.44775390625-1-1v-8c0-.55224609375.44775390625-1,1-1s1,.44775390625,1,1v8c0,.55224609375-.44775390625,1-1,1Zm-275.072265625-2.83251953125c-.55224609375,0-1-.44775390625-1-1v-8c0-.55224609375.44775390625-1,1-1s1,.44775390625,1,1v8c0,.55224609375-.44775390625,1-1,1Zm275.072265625-13.16748046875c-.55224609375,0-1-.44775390625-1-1v-8c0-.55224609375.44775390625-1,1-1s1,.44775390625,1,1v8c0,.55224609375-.44775390625,1-1,1Zm-275.072265625-2.83251953125c-.55224609375,0-1-.44775390625-1-1v-8c0-.55224609375.44775390625-1,1-1s1,.44775390625,1,1v8c0,.55224609375-.44775390625,1-1,1Zm275.072265625-13.16748046875c-.55224609375,0-1-.44775390625-1-1v-8c0-.55224609375.44775390625-1,1-1s1,.44775390625,1,1v8c0,.55224609375-.44775390625,1-1,1Zm-275.072265625-2.83251953125c-.55224609375,0-1-.44775390625-1-1v-8c0-.55224609375.44775390625-1,1-1s1,.44775390625,1,1v8c0,.55224609375-.44775390625,1-1,1Zm275.072265625-13.16748046875c-.55224609375,0-1-.44775390625-1-1v-8c0-.55224609375.44775390625-1,1-1s1,.44775390625,1,1v8c0,.55224609375-.44775390625,1-1,1Zm-275.072265625-2.83251953125c-.55224609375,0-1-.44775390625-1-1v-8c0-.55224609375.44775390625-1,1-1s1,.44775390625,1,1v8c0,.55224609375-.44775390625,1-1,1Zm275.072265625-13.16748046875c-.55224609375,0-1-.44775390625-1-1v-8c0-.55224609375.44775390625-1,1-1s1,.44775390625,1,1v8c0,.55224609375-.44775390625,1-1,1Zm-275.072265625-2.83251953125c-.55224609375,0-1-.44775390625-1-1v-8c0-.55224609375.44775390625-1,1-1s1,.44775390625,1,1v8c0,.55224609375-.44775390625,1-1,1Zm275.072265625-13.16748046875c-.55224609375,0-1-.44775390625-1-1v-8c0-.55224609375.44775390625-1,1-1s1,.44775390625,1,1v8c0,.55224609375-.44775390625,1-1,1Zm-275.072265625-2.83251953125c-.55224609375,0-1-.44775390625-1-1v-8c0-.55224609375.44775390625-1,1-1s1,.44775390625,1,1v8c0,.55224609375-.44775390625,1-1,1Zm275.072265625-13.16748046875c-.55224609375,0-1-.44775390625-1-1v-8c0-.55224609375.44775390625-1,1-1s1,.44775390625,1,1v8c0,.55224609375-.44775390625,1-1,1Zm-275.072265625-2.83251953125c-.55224609375,0-1-.44775390625-1-1v-8c0-.55224609375.44775390625-1,1-1s1,.44775390625,1,1v8c0,.55224609375-.44775390625,1-1,1Zm275.072265625-13.16748046875c-.55224609375,0-1-.44775390625-1-1v-8c0-.55224609375.44775390625-1,1-1s1,.44775390625,1,1v8c0,.55224609375-.44775390625,1-1,1Zm-275.072265625-2.83251953125c-.55224609375,0-1-.44775390625-1-1v-8c0-.55224609375.44775390625-1,1-1s1,.44775390625,1,1v8c0,.55224609375-.44775390625,1-1,1Zm275.072265625-13.16748046875c-.55224609375,0-1-.44775390625-1-1v-8c0-.55224609375.44775390625-1,1-1s1,.44775390625,1,1v8c0,.55224609375-.44775390625,1-1,1Zm-275.072265625-2.83251953125c-.55224609375,0-1-.44775390625-1-1v-8c0-.55224609375.44775390625-1,1-1s1,.44775390625,1,1v8c0,.55224609375-.44775390625,1-1,1Zm275.072265625-13.16748046875c-.55224609375,0-1-.44775390625-1-1v-8c0-.55224609375.44775390625-1,1-1s1,.44775390625,1,1v8c0,.55224609375-.44775390625,1-1,1Zm-275.072265625-2.83251953125c-.55224609375,0-1-.44775390625-1-1v-8c0-.55224609375.44775390625-1,1-1s1,.44775390625,1,1v8c0,.55224609375-.44775390625,1-1,1Zm275.072265625-13.16748046875c-.55224609375,0-1-.44775390625-1-1v-8c0-.55224609375.44775390625-1,1-1s1,.44775390625,1,1v8c0,.55224609375-.44775390625,1-1,1Zm-275.072265625-2.83251953125c-.55224609375,0-1-.44775390625-1-1v-8c0-.55224609375.44775390625-1,1-1s1,.44775390625,1,1v8c0,.55224609375-.44775390625,1-1,1Zm275.072265625-13.16748046875c-.55224609375,0-1-.44775390625-1-1v-8c0-.55224609375.44775390625-1,1-1s1,.44775390625,1,1v8c0,.55224609375-.44775390625,1-1,1Zm-275.072265625-2.83251953125c-.55224609375,0-1-.44775390625-1-1v-8c0-.55224609375.44775390625-1,1-1s1,.44775390625,1,1v8c0,.55224609375-.44775390625,1-1,1Zm275.072265625-13.16748046875c-.55224609375,0-1-.44775390625-1-1v-8c0-.55224609375.44775390625-1,1-1s1,.44775390625,1,1v8c0,.55224609375-.44775390625,1-1,1Zm-275.072265625-2.83251953125c-.55224609375,0-1-.44775390625-1-1v-8c0-.55224609375.44775390625-1,1-1s1,.44775390625,1,1v8c0,.55224609375-.44775390625,1-1,1Zm275.072265625-13.16748046875c-.55224609375,0-1-.44775390625-1-1v-8c0-.55224609375.44775390625-1,1-1s1,.44775390625,1,1v8c0,.55224609375-.44775390625,1-1,1Zm-275.072265625-2.83251953125c-.55224609375,0-1-.44775390625-1-1v-8c0-.55224609375.44775390625-1,1-1s1,.44775390625,1,1v8c0,.55224609375-.44775390625,1-1,1Zm275.072265625-13.16748046875c-.55224609375,0-1-.44775390625-1-1v-8c0-.55224609375.44775390625-1,1-1s1,.44775390625,1,1v8c0,.55224609375-.44775390625,1-1,1Zm-275.072265625-2.83251953125c-.55224609375,0-1-.44775390625-1-1v-8c0-.55224609375.44775390625-1,1-1s1,.44775390625,1,1v8c0,.55224609375-.44775390625,1-1,1Zm275.072265625-13.16748046875c-.55224609375,0-1-.44775390625-1-1v-8c0-.55224609375.44775390625-1,1-1s1,.44775390625,1,1v8c0,.55224609375-.44775390625,1-1,1Zm-275.072265625-2.83251953125c-.55224609375,0-1-.44775390625-1-1v-8c0-.55224609375.44775390625-1,1-1s1,.44775390625,1,1v8c0,.55224609375-.44775390625,1-1,1Zm275.072265625-13.16748046875c-.55224609375,0-1-.44775390625-1-1v-8c0-.55224609375.44775390625-1,1-1s1,.44775390625,1,1v8c0,.55224609375-.44775390625,1-1,1Zm-275.072265625-2.83251953125c-.55224609375,0-1-.44775390625-1-1v-8c0-.55224609375.44775390625-1,1-1s1,.44775390625,1,1v8c0,.55224609375-.44775390625,1-1,1Zm275.072265625-13.16748046875c-.55224609375,0-1-.44775390625-1-1v-8c0-.55224609375.44775390625-1,1-1s1,.44775390625,1,1v8c0,.55224609375-.44775390625,1-1,1Zm-275.072265625-2.83251953125c-.55224609375,0-1-.44775390625-1-1v-8c0-.55224609375.44775390625-1,1-1s1,.44775390625,1,1v8c0,.55224609375-.44775390625,1-1,1Zm275.072265625-13.16748046875c-.55224609375,0-1-.44775390625-1-1v-8c0-.55224609375.44775390625-1,1-1s1,.44775390625,1,1v8c0,.55224609375-.44775390625,1-1,1Zm-275.072265625-2.83251953125c-.55224609375,0-1-.44775390625-1-1v-8c0-.55224609375.44775390625-1,1-1s1,.44775390625,1,1v8c0,.55224609375-.44775390625,1-1,1Zm275.072265625-13.16748046875c-.55224609375,0-1-.44775390625-1-1v-8c0-.55224609375.44775390625-1,1-1s1,.44775390625,1,1v8c0,.55224609375-.44775390625,1-1,1Zm-275.072265625-2.83251953125c-.55224609375,0-1-.44775390625-1-1v-8c0-.55224609375.44775390625-1,1-1s1,.44775390625,1,1v8c0,.55224609375-.44775390625,1-1,1Zm275.072265625-13.16748046875c-.55224609375,0-1-.44775390625-1-1v-8c0-.55224609375.44775390625-1,1-1s1,.44775390625,1,1v8c0,.55224609375-.44775390625,1-1,1Zm-275.072265625-2.83251953125c-.55224609375,0-1-.44775390625-1-1v-8c0-.55224609375.44775390625-1,1-1s1,.44775390625,1,1v8c0,.55224609375-.44775390625,1-1,1Zm275.072265625-13.16748046875c-.55224609375,0-1-.44775390625-1-1v-8c0-.55224609375.44775390625-1,1-1s1,.44775390625,1,1v8c0,.55224609375-.44775390625,1-1,1Zm-275.072265625-2.83251953125c-.55224609375,0-1-.44775390625-1-1v-8c0-.55224609375.44775390625-1,1-1s1,.44775390625,1,1v8c0,.55224609375-.44775390625,1-1,1Zm275.072265625-13.16748046875c-.55224609375,0-1-.44775390625-1-1v-8c0-.55224609375.44775390625-1,1-1s1,.44775390625,1,1v8c0,.55224609375-.44775390625,1-1,1Zm-275.072265625-2.83251953125c-.55224609375,0-1-.44775390625-1-1v-8c0-.55224609375.44775390625-1,1-1s1,.44775390625,1,1v8c0,.55224609375-.44775390625,1-1,1Zm275.072265625-13.16748046875c-.55224609375,0-1-.44775390625-1-1v-8c0-.55224609375.44775390625-1,1-1s1,.44775390625,1,1v8c0,.55224609375-.44775390625,1-1,1Zm-275.072265625-2.83251953125c-.55224609375,0-1-.44775390625-1-1v-8c0-.55224609375.44775390625-1,1-1s1,.44775390625,1,1v8c0,.55224609375-.44775390625,1-1,1Zm275.072265625-13.16748046875c-.55224609375,0-1-.44775390625-1-1v-8c0-.55224609375.44775390625-1,1-1s1,.44775390625,1,1v8c0,.55224609375-.44775390625,1-1,1Zm-275.072265625-2.83251953125c-.55224609375,0-1-.44775390625-1-1v-8c0-.55224609375.44775390625-1,1-1s1,.44775390625,1,1v8c0,.55224609375-.44775390625,1-1,1Zm275.072265625-13.16748046875c-.55224609375,0-1-.44775390625-1-1v-8c0-.55224609375.44775390625-1,1-1s1,.44775390625,1,1v8c0,.55224609375-.44775390625,1-1,1Zm-275.072265625-2.83251953125c-.55224609375,0-1-.44775390625-1-1v-8c0-.55224609375.44775390625-1,1-1s1,.44775390625,1,1v8c0,.55224609375-.44775390625,1-1,1Zm275.072265625-13.16748046875c-.55224609375,0-1-.44775390625-1-1v-8c0-.55224609375.44775390625-1,1-1s1,.44775390625,1,1v8c0,.55224609375-.44775390625,1-1,1Zm-275.072265625-2.83251953125c-.55224609375,0-1-.44775390625-1-1v-8c0-.55224609375.44775390625-1,1-1s1,.44775390625,1,1v8c0,.55224609375-.44775390625,1-1,1Zm275.072265625-13.16748046875c-.55224609375,0-1-.44775390625-1-1v-8c0-.55224609375.44775390625-1,1-1s1,.44775390625,1,1v8c0,.55224609375-.44775390625,1-1,1Zm-275.072265625-2.83251953125c-.55224609375,0-1-.44775390625-1-1v-8c0-.55224609375.44775390625-1,1-1s1,.44775390625,1,1v8c0,.55224609375-.44775390625,1-1,1Zm275.072265625-13.16748046875c-.55224609375,0-1-.44775390625-1-1v-8c0-.55224609375.44775390625-1,1-1s1,.44775390625,1,1v8c0,.55224609375-.44775390625,1-1,1Zm-275.072265625-2.83251953125c-.55224609375,0-1-.44775390625-1-1v-6.2646484375c0-.60693359375.02197265625-1.208984375.064453125-1.80517578125.0390625-.55126953125.51806640625-.9609375,1.06884765625-.92626953125.55078125.03955078125.9658203125.51806640625.92626953125,1.06884765625-.03955078125.54931640625-.0595703125,1.103515625-.0595703125,1.66259765625v6.2646484375c0,.55224609375-.44775390625,1-1,1Zm182.4814453125-9.37841796875h-6.453125c-.55224609375,0-1-.44775390625-1-1s.44775390625-1,1-1h6.453125c.4951171875,0,.986328125-.017578125,1.47314453125-.052734375.56494140625-.033203125,1.02978515625.37548828125,1.0693359375.92626953125s-.375,1.029296875-.92578125,1.06884765625c-.53466796875.0380859375-1.07373046875.0576171875-1.61669921875.0576171875Zm-14.453125,0h-8c-.55224609375,0-1-.44775390625-1-1s.44775390625-1,1-1h8c.55224609375,0,1,.44775390625,1,1s-.44775390625,1-1,1Zm-16,0h-8c-.55224609375,0-1-.44775390625-1-1s.44775390625-1,1-1h8c.55224609375,0,1,.44775390625,1,1s-.44775390625,1-1,1Zm-16,0h-8c-.55224609375,0-1-.44775390625-1-1s.44775390625-1,1-1h8c.55224609375,0,1,.44775390625,1,1s-.44775390625,1-1,1Zm-16,0h-8c-.55224609375,0-1-.44775390625-1-1s.44775390625-1,1-1h8c.55224609375,0,1,.44775390625,1,1s-.44775390625,1-1,1Zm-16,0h-8c-.55224609375,0-1-.44775390625-1-1s.44775390625-1,1-1h8c.55224609375,0,1,.44775390625,1,1s-.44775390625,1-1,1Zm-15.96337890625-.48046875c-.06982421875,0-.14013671875-.00732421875-.21142578125-.0224609375-2.7314453125-.58740234375-5.3134765625-1.66845703125-7.67431640625-3.212890625-.46240234375-.30224609375-.591796875-.92236328125-.28955078125-1.38427734375.302734375-.46240234375.92236328125-.591796875,1.38427734375-.28955078125,2.154296875,1.40966796875,4.509765625,2.39599609375,7.00048828125,2.931640625.53955078125.1162109375.88330078125.64794921875.76708984375,1.18798828125-.1005859375.46875-.515625.78955078125-.9765625.78955078125Zm103.65283203125-1.59814453125c-.37451171875,0-.7333984375-.2109375-.904296875-.572265625-.236328125-.4990234375-.0234375-1.09521484375.4755859375-1.33154296875,2.310546875-1.09423828125,4.384765625-2.58642578125,6.1640625-4.435546875.38330078125-.39794921875,1.01708984375-.40966796875,1.4140625-.02734375.39794921875.38330078125.41015625,1.01611328125.02734375,1.4140625-1.9482421875,2.0244140625-4.21923828125,3.658203125-6.74951171875,4.8564453125-.13818359375.0654296875-.28369140625.09619140625-.42724609375.09619140625Zm82.37158203125-1.6123046875c-.431640625,0-.82958984375-.28173828125-.95849609375-.716796875-.72509765625-2.451171875-1.8525390625-4.7578125-3.35009765625-6.857421875-.32080078125-.44921875-.21630859375-1.07373046875.23291015625-1.39453125.4501953125-.3212890625,1.07373046875-.21630859375,1.39501953125.2333984375,1.626953125,2.27978515625,2.8515625,4.787109375,3.64013671875,7.451171875.15673828125.529296875-.1455078125,1.0859375-.67529296875,1.24267578125-.0947265625.02783203125-.18994140625.04150390625-.2841796875.04150390625Zm-272.14501953125-2.66259765625c-.1318359375,0-.265625-.0263671875-.39453125-.08203125-.50732421875-.21826171875-.74169921875-.80615234375-.5234375-1.3134765625,1.0966796875-2.55029296875,2.6044921875-4.8955078125,4.48193359375-6.9716796875.36962890625-.4091796875,1.00244140625-.44091796875,1.41259765625-.07080078125.40966796875.37060546875.44140625,1.0029296875.07080078125,1.41259765625-1.7294921875,1.912109375-3.11865234375,4.072265625-4.12841796875,6.419921875-.16259765625.37841796875-.53125.60546875-.9189453125.60546875Zm73.01904296875-2.68212890625c-.3095703125,0-.6142578125-.142578125-.81005859375-.412109375-1.67236328125-2.30078125-2.86767578125-4.8349609375-3.55224609375-7.53173828125-.1357421875-.53564453125.18798828125-1.07958984375.72314453125-1.21533203125.53369140625-.1337890625,1.07958984375.18798828125,1.21533203125.72314453125.62158203125,2.44970703125,1.708984375,4.75341796875,3.23193359375,6.84814453125.32470703125.44677734375.2255859375,1.07177734375-.22119140625,1.396484375-.17724609375.12939453125-.38330078125.19140625-.5869140625.19140625Zm127.5849609375-4.330078125c-.12841796875,0-.2587890625-.02490234375-.38427734375-.07763671875-.509765625-.21240234375-.7509765625-.7978515625-.5380859375-1.3076171875.99169921875-2.3779296875,1.49462890625-4.869140625,1.49462890625-7.40380859375,0-.55224609375.44775390625-1,1-1s1,.44775390625,1,1c0,2.80029296875-.5546875,5.55029296875-1.64892578125,8.17333984375-.16015625.38427734375-.53173828125.61572265625-.92333984375.61572265625Zm62.43115234375-3.1259765625c-.203125,0-.40771484375-.0615234375-.5849609375-.189453125-2.0849609375-1.50732421875-4.3837890625-2.65625-6.8330078125-3.4150390625-.52734375-.1630859375-.82275390625-.72314453125-.6591796875-1.2509765625.1630859375-.52783203125.72216796875-.82568359375,1.2509765625-.6591796875,2.6572265625.82275390625,5.1513671875,2.0693359375,7.4130859375,3.7041015625.447265625.32373046875.5478515625.94873046875.224609375,1.396484375-.19580078125.2705078125-.50146484375.4140625-.8115234375.4140625Zm-252.501953125-1.52392578125c-.35009765625,0-.68994140625-.18408203125-.873046875-.5107421875-.2705078125-.48193359375-.0986328125-1.09130859375.3828125-1.361328125,2.43212890625-1.36376953125,5.0537109375-2.31494140625,7.7919921875-2.8271484375.546875-.1005859375,1.06591796875.25634765625,1.1669921875.798828125.1015625.54296875-.25634765625,1.0654296875-.798828125,1.1669921875-2.52392578125.47216796875-4.9404296875,1.3486328125-7.181640625,2.60546875-.15478515625.0869140625-.32275390625.1279296875-.48828125.1279296875Zm237.49267578125-3.1376953125h-8c-.55224609375,0-1-.44775390625-1-1s.44775390625-1,1-1h8c.55224609375,0,1,.44775390625,1,1s-.44775390625,1-1,1Zm-16,0h-8c-.55224609375,0-1-.44775390625-1-1s.44775390625-1,1-1h8c.55224609375,0,1,.44775390625,1,1s-.44775390625,1-1,1Zm-16,0h-8c-.55224609375,0-1-.44775390625-1-1s.44775390625-1,1-1h8c.55224609375,0,1,.44775390625,1,1s-.44775390625,1-1,1Zm-150.03515625,0h-8c-.55224609375,0-1-.44775390625-1-1s.44775390625-1,1-1h8c.55224609375,0,1,.44775390625,1,1s-.44775390625,1-1,1Zm-16,0h-8c-.55224609375,0-1-.44775390625-1-1s.44775390625-1,1-1h8c.55224609375,0,1,.44775390625,1,1s-.44775390625,1-1,1Zm-16,0h-8c-.55224609375,0-1-.44775390625-1-1s.44775390625-1,1-1h8c.55224609375,0,1,.44775390625,1,1s-.44775390625,1-1,1Z"/>
    </g>
    <g>
      <path class="cls-8" d="m495.663984143666312,720.000943211946833h-31.420576326087939l.458818339163372,13.445419469286207s17.049243979411585.289478886767938,18.152681680639944.274325632427463c7.164155255582045-.098383684582586,12.88166581743917-6.096666561746133,12.88166581743917-13.139546729737958h0l-.072589511154547-.580198371975712Z"/>
      <path class="cls-2" d="m482.196601730361181,733.735841568000978h-73.722497883172764c-7.497037310112319,0-13.56063093827197-5.898684178006988-13.56063093827197-13.154699984078434v-45.783717278422955l-.000018582039957-2.832508239755043c0-20.35972666028556,16.503642744145509-36.863369404431978,36.863679105179472-36.863369404431978,20.359958935839131,0,36.863601679983731,16.503642744146418,36.863601679983731,36.863369404431978l-.000052649118516,2.832508239755043v45.783717278422955c0,7.256015806071446,6.063593628148737,13.154699984078434,13.560630938271061,13.154699984078434"/>
      <path class="cls-9" d="m454.457965080752729,671.399767500228336c0,12.524865650327229-10.156120766778258,22.670027951849988-22.680854387404906,22.670027951849988-12.524799635472846,0-22.680920402262018-10.14516230152276-22.680920402262018-22.670027951849988,0-12.53542802647371,10.156120766789172-22.68085438741582,22.680920402262018-22.68085438741582,12.524733620626648,0,22.680854387404906,10.14542636094211,22.680854387404906,22.68085438741582Z"/>
    </g>
    <g>
      <g>
        <path class="cls-6" d="m417.251315132184573,240.143147558133933c-11.109746499953872,10.676531765226173-26.19966677251432,17.232271813275474-42.811519067126028,17.232271813275474-16.06167029603148,0-30.695082414182252-6.13431492757536-41.699365455708175-16.17870901209244,7.258115248836475-4.249548595288616,15.464544197048781-6.415265007891321,23.483696909122955-7.328424221123896,3.359825706149422-.37455247228263,6.696215088204553-.538463836534902,9.915565754196905-.538463836534902l1.533578731893613.760894558819928,11.929160416805644-2.762771059376973c-.058519358030935.14047504015798,1.393103691737451.772684173073685,11.320387607983321,1.276064975672853,1.147308097564746.058519358032754,2.271108418825861.152193202206035,3.359825706152151.25751375622076,9.517576957819983.97167857126351,17.045067029341226,3.804687150719474,22.968669396679616,7.281623025139197Z"/>
        <path class="cls-13" d="m436.251314561685831,195.563900874781211c0,17.524940055638581-7.293269734979731,33.340743305288015-18.999999429501258,44.579246683352721-5.92360236733839-3.476935874419723-13.451092438859632-6.309944453875687-22.968669396679616-7.281623025139197-1.08871728732629-.105320554014725-2.212517608587405-.198994398188006-3.359825706152151-.25751375622076-9.927283916245869-.503380802599168-11.378906966014256-1.135589935514872-11.320387607983321-1.276064975672853l-11.929160416805644,2.762771059376973-1.533578731893613-.760894558819928c-3.219350665992351,0-6.555740048047483.163911364252272-9.915565754196905.538463836534902-8.019152712074174.913159213232575-16.22558166028648,3.078875625835281-23.483696909122955,7.328424221123896-12.362303699324912-11.29695128388903-20.112224493128451-27.557615978106696-20.112224493128451-45.632809484535755,0-34.136792350251199,27.674726146376088-61.799800334580141,61.811589948836627-61.799800334580141,34.13679235024938,0,61.811518496627286,27.663007984328942,61.811518496627286,61.799800334580141Z"/>
        <g>
          <g>
            <path class="cls-4" d="m375.256660800714599,252.871012148124464c-10.493357746660877,0-19.030209863658456-8.536852116979389-19.030209863658456-19.030209863639357v-25.714900351469623c0-1.258135016586493,1.020079407796402-2.278214424369253,2.278214424387443-2.278214424369253h33.503990878550212c1.25813501659195,0,2.278214424370162,1.02007940778276,2.278214424370162,2.278214424369253v25.714900351469623c0,10.493357746659967-8.536852116972113,19.030209863639357-19.030209863649361,19.030209863639357Z"/>
            <polyline class="cls-7" points="344.036650552844549 162.726310814937278 347.381598638145988 190.257806593941496 350.790872648153709 188.606774526178924 352.270368916649204 167.80805886759299"/>
            <circle class="cls-4" cx="350.862746567009935" cy="194.782063299051288" r="7.778339303480607"/>
            <circle class="cls-4" cx="399.727164650619443" cy="194.760881143196002" r="7.778339303484586"/>
            <path class="cls-4" d="m375.949857206745946,229.775366345248585l-1.06939875250373-.000000000030013c-14.542837934563977,0-24.361361716473766-11.737814335800977-24.361361716473766-24.112567927640157l.000000002261913-35.387828233798245c.000000000743967-12.562337024545741,9.356751596064896-22.840612771985434,21.919088620596085-22.840612772117311h1.069398753446876c15.320590233638541,0,26.37888067392123,7.939548749674032,26.37888067392123,22.840612772188251l.000000002322849,35.442500317131817c0,13.954509369527841-9.665130809470611,24.057895844265659-23.936607583571458,24.057895844265659Z"/>
            <path class="cls-7" d="m396.252578241017545,168.371296423472813c-.004217036242153-2.127440020931317-2.568228642754548-3.300360321856715-4.314606520699272-1.982603944787115-4.594353892218351,3.466740627265608-12.498592282004211,7.841747361150738-21.896937395529676,6.425864507070401-10.218665146370768-1.539466001468099-8.672045255023477-6.914134767142059-8.672045255023477-6.914134767142059,0,0-22.143111555519681,14.740652886420321-27.73677966489231,3.595573211528972-3.716590823576553-7.405105207889392,9.429128570960529-13.036026451290127,9.429128570960529-13.036026451290127,0,0-10.429500723670571-10.477676002456974,19.408863189805743-15.148645778133869,31.246893220496531-4.891464365797219,34.653768142105946,7.647847119545986,33.449317412239907,11.95750665484411h0s5.718992967688791.226992986732512,7.444899586064821,5.717457595894302c2.466009276817203,7.84488367812628-1.691739064411195,27.411963659442335-1.691739064411195,27.411963659442335l-1.965113697202469-.107209874528962-.755799749009384,5.025330873018902h-2.653705417496894l-.045481994806323-22.945075685916891Z"/>
            <path class="cls-13" d="m375.604873391961519,187.960911782765834l-3.524371498396249,13.102951071296957c-.361814197152853,1.343739768300111.589041978241767,2.681355698400694,1.906065535665221,2.681355698400694h3.926962429243758"/>
            <ellipse class="cls-18" cx="370.13785936571071" cy="189.03127924815908" rx="1.848861682118468" ry="3.046964744660727"/>
            <ellipse class="cls-18" cx="356.342159563860378" cy="189.03127924815908" rx="1.848861682111647" ry="3.046964744660727"/>
            <path class="cls-14" d="m399.87910120158358,184.361263494843115c0,2.735828778520045.128651849428934,9.391585008724178.128651849428934,9.391585008724178-4.780485504731587.202658862357566-26.974671182525526.367840573210742-37.865777639424778.570454025329127-10.828947371549475.201457071288132-11.72951031759203.265782996011694-11.72951031759203.265782996011694l-.450281473018549-13.701421964779001s-.220561267956327.560658818020784,12.440855751188792.560658818020784c16.838373857647639,0,36.968818020419349-.687929247171269,36.968818020419349-.687929247171269l.507243808998282,3.600870363864487Z"/>
            <path class="cls-1" d="m378.720153913746799,187.751669137371209l11.389848933884423-3.163407027701396c.436504868797783-.121234493792144.83226216050025.321151622795696.746426402611178.838001081671791-.294509273860967,1.773351369638476-1.344636967015504,5.19074533326966-5.080643674430576,5.981537886975275-4.353377455340706.921470100252009-6.510999688071934-1.182405425834986-7.397984247440036-2.484617165913733-.285880575644114-.419710848284012-.105652553556865-1.047086205957385.342352585375011-1.171514775031937Z"/>
            <path class="cls-1" d="m370.02602070417197,187.702990567730922l-11.389848933758003-3.163407028223446c-.436504868790507-.121234493794873-.832262160513892.321151622776597-.746426402650286.838001081649054.294509273791846,1.773351369654847,1.344636966771759,5.190745333326959,5.080643674144085,5.981537887197192,4.353377455336158.921470100444822,6.510999688155607-1.182405425547586,7.397984247580098-2.484617165561758.285880575649571-.419710848282193.105652553595064-1.047086205972846-.342352585315894-1.171514775061041Z"/>
            <polyline class="cls-7" points="351.862971393438784 165.663861377038302 351.927297318160527 184.961638792214217 347.681786286825627 184.961638792214217 347.681786286825627 168.622853914028383"/>
          </g>
          <path class="cls-13" d="m382.192904929287579,210.889258423675528s-2.122925612066865,2.067615013354043-5.708190945983006,2.424958660356424c-4.693869940067998.467838345782184-7.42478836063583-1.689587186241624-7.42478836063583-1.689587186241624"/>
        </g>
      </g>
      <g>
        <path class="cls-3" d="m548.628846149941637,285.181795335751303v26.775760062979316c0,5.867683248570756-4.755585735980276,10.633870855856003-10.633935501412452,10.633870855856003h-214.13950567388838c-5.867683248568937,0-10.633870855855093-4.766187607285246-10.633870855855093-10.633870855856003v-26.775760062979316c0-5.878285119874818,4.766187607286156-10.633870855855093,10.633870855855093-10.633870855855093h3.876535455437079v-21.426705135732846l21.426640490178215,21.426705135732846h188.836329728273085c5.878349765432176,0,10.633935501412452,4.755585735980276,10.633935501412452,10.633870855855093Z"/>
        <line class="cls-13" x1="328.142270888251915" y1="291.954835448577796" x2="380.803205420566883" y2="291.954835448577796"/>
        <line class="cls-13" x1="391.288311343992063" y1="291.954835448577796" x2="410.699983793228967" y2="291.954835448577796"/>
        <line class="cls-13" x1="481.272889957941516" y1="291.954835448577796" x2="514.297624421506043" y2="291.954835448577796"/>
        <line class="cls-13" x1="419.470929102812079" y1="291.954835448577796" x2="471.590275494781963" y2="291.954835448577796"/>
        <line class="cls-13" x1="328.142270888251915" y1="304.388343283352697" x2="346.654669241774172" y2="304.388343283352697"/>
        <line class="cls-13" x1="356.011622531706053" y1="304.388343283352697" x2="410.699983793228967" y2="304.388343283352697"/>
        <line class="cls-13" x1="419.470929102812079" y1="304.388343283352697" x2="486.019084092478806" y2="304.388343283352697"/>
      </g>
      <g>
        <polygon class="cls-3" points="496.915991572672283 257.900046878090507 417.478553819079934 257.777159245928488 417.689365358696705 206.006403790964214 497.126803112285415 206.129291423125323 496.915991572672283 257.900046878090507"/>
        <polyline class="cls-13" points="417.881957000578041 206.007747114761514 457.059742366296632 240.685599518589697 497.126560956877256 206.161904234379108"/>
        <line class="cls-13" x1="447.177805892155448" y1="232.210568453334417" x2="417.671731571346754" y2="257.634566532498866"/>
        <line class="cls-13" x1="496.916335527648698" y1="257.788723652112822" x2="467.464848770307981" y2="231.72001401703983"/>
      </g>
    </g>
  </g>
  <g id="References">
    <g>
      <g>
        <g>
          <rect class="cls-5" x="105.63354265319316" y="235.488500954527041" width="8.332018921692551" height="34.797073990328244" transform="translate(-25.386431009872751 12.611060011334786) rotate(-5.893599381718025)"/>
          <rect class="cls-5" x="108.408066691218721" y="238.267942829840308" width="2.778753044972191" height="29.238625630802062" transform="translate(-25.386464510220463 12.610844617155522) rotate(-5.893599381726018)"/>
        </g>
        <g>
          <rect class="cls-5" x="122.20997914349573" y="233.777583270558495" width="8.327778708517599" height="34.797073990326879" transform="translate(-25.123144596800415 14.303890879800861) rotate(-5.893599381735124)"/>
          <rect class="cls-5" x="124.984491975274622" y="236.556807450323959" width="2.77875304495663" height="29.23862563080138" transform="translate(-25.123144596771255 14.303890879781875) rotate(-5.893599381727999)"/>
        </g>
        <g>
          <rect class="cls-5" x="171.930339543493005" y="228.644878595447892" width="8.332018921707657" height="34.797073990325202" transform="translate(-24.333292801849723 19.382335619667174) rotate(-5.893599381726389)"/>
          <rect class="cls-5" x="174.709080137065513" y="231.423860891268703" width="2.779224179767397" height="29.238625630802858" transform="translate(-24.333255579324629 19.382574946595525) rotate(-5.893599381738036)"/>
        </g>
        <g>
          <rect class="cls-5" x="155.353914259458861" y="230.356013974957733" width="8.332018921710613" height="34.797073990329324" transform="translate(-24.596612715373766 17.689289357101359) rotate(-5.893599381743178)"/>
          <rect class="cls-5" x="158.132654853023354" y="233.134996270784455" width="2.779224179768619" height="29.238625630802431" transform="translate(-24.596575492761986 17.689528683955132) rotate(-5.893599381732894)"/>
        </g>
        <g>
          <rect class="cls-5" x="138.78170553094111" y="232.066689774986912" width="8.332490056497022" height="34.797073990327817" transform="translate(-24.85986190583003 15.996697815475443) rotate(-5.893599381714433)"/>
          <rect class="cls-5" x="141.556230814114457" y="234.846155838691544" width="2.778753044973371" height="29.238625630804307" transform="translate(-24.859899128489474 15.996458488652735) rotate(-5.893599381736053)"/>
        </g>
        <path class="cls-5" d="m187.831382255160861,265.111814400193907l.285374674273044,2.764534017984261-85.628383301970644,8.839164877101211-.285374674272134-2.764534017981532c-.148323232976509-1.436864095478086.824551103750309-2.721386817075654,2.196128300930468-3.011219468186937l80.680903114140165-8.328451122853949c1.401861066684432.003538817857589,2.603028653921683,1.06364161845795,2.751351886899101,2.500505713936946Z"/>
        <path class="cls-5" d="m193.929730206003114,270.065074751496468l.285374674274863,2.764534017993356-96.68511344041417,9.980518443838264-.285374674276682-2.764534017993356c-.157321315599802-1.524031976023252.955190867865895-2.887383910179778,2.479222843891876-3.044705225782309l91.170573384481941-9.411268775723329c1.524031976007791-.157321315601621,2.877995896436005.951423581645031,3.035317212042173,2.475455557667374Z"/>
        <path class="cls-5" d="m183.68820059664813,224.975223208921307c.157756706698819,1.528249776668417-.941101285557124,2.895402250455845-2.465133261572191,3.052723566059285l-80.113374601555734,8.26986683220548c-1.52403197600961.157321315600711-2.892118732144809-.955175744491498-3.049875438839081-2.483425521164463-.156837547719078-1.519345530833561.954658723187094-2.892538999890348,2.478690699194885-3.049860315493788l80.113374601557553-8.26986683220639c1.524031976015067-.157321315599802,2.879480453497308.961216739760857,3.036318001214568,2.480562270599876Z"/>
        <path class="cls-5" d="m139.405669103430228,191.498821103789851c-.682459923532406-.547173946400108-1.580375953551084-.838435489912627-2.521941604737549-.741240451158774-.941565651184646.097195038752034-1.75278281712508.56488534960954-2.309076504060613,1.239932169270105l-31.274127905442583,38.483339566060749,74.581072476427835-7.698783638195891-38.47592646218709-31.283247645976189Zm.231586558735216,25.933243879946531c-3.039019070740324.313708954848153-5.780538460393473-1.907199201253206-6.095959255055277-4.962801521412075-.313714158008224-3.039069475750694,1.916313738625831-5.773175761529274,4.955332809359788-6.086884716377426,3.047285492943047-.31456227317085,5.788804882598015,1.906345882926871,6.102519040608968,4.945415358679384.315420794659985,3.055602320159778-1.914607101969523,5.78970860593563-4.961892594913479,6.104270879110118Z"/>
      </g>
      <g>
        <line class="cls-16" x1="153.103089460226329" y1="358.793581008962974" x2="149.833198342974356" y2="322.308413851217665"/>
        <line class="cls-16" x1="134.799313439081743" y1="154.561603917668435" x2="131.52942232182977" y2="118.076436759921307"/>
        <line class="cls-16" x1="262.674828015557978" y1="227.648175315241133" x2="226.18966085780994" y2="230.918066432492196"/>
        <line class="cls-16" x1="58.442850924269806" y1="245.951951336389357" x2="21.957683766519949" y2="249.221842453637692"/>
        <circle class="cls-16" cx="142.313939684497655" cy="238.42855066428001" r="84.211602902214082"/>
      </g>
    </g>
    <g>
      <g>
        <rect class="cls-13" x="409.993879306464805" y="533.692394162517303" width="127.704917192748326" height="25.716220738588163"/>
        <rect class="cls-13" x="409.993879306464805" y="569.175766039343216" width="127.704917192748326" height="25.716220738588163"/>
        <line class="cls-13" x1="420.451421324707553" y1="546.550504531814113" x2="479.171083708851256" y2="546.550504531814113"/>
        <line class="cls-13" x1="487.047850257526989" y1="546.550504531814113" x2="520.44520779805589" y2="546.550504531814113"/>
        <circle class="cls-10" cx="423.303314790017794" cy="582.141266213051495" r="5.15072868813786"/>
        <circle class="cls-10" cx="438.77073481827324" cy="582.141266213051495" r="5.150728688137292"/>
        <circle class="cls-10" cx="454.294710014384236" cy="582.141266213051495" r="5.150728688137178"/>
        <circle class="cls-10" cx="469.818685210495005" cy="582.141266213051495" r="5.150728688137178"/>
        <circle class="cls-10" cx="485.342660406606456" cy="582.141266213051495" r="5.150728688137747"/>
        <circle class="cls-10" cx="500.866635602717906" cy="582.141266213051495" r="5.15072868813786"/>
      </g>
      <g>
        <path class="cls-13" d="m360.267254758493436,554.578338316608097v-11.241000896025071c0-7.819004101701466,6.396220325828835-14.215224427530302,14.213963094402061-14.215224427530302,3.908871384285703,0,7.463308157739448,1.599370414738587,10.04021175183334,4.175012675695143,2.575642260956556,2.576903594095711,4.175012675695143,6.130079034406663,4.175012675695143,10.040211751835159h0"/>
        <path class="cls-13" d="m392.585979798089284,555.159907636568278h-36.206110113025716c-3.589400215976639,0-6.502513615498174,2.913113399521535-6.502513615498174,6.502513615494536v26.634270368588659c0,3.589400215976639,2.913113399521535,6.502513615484531,6.502513615498174,6.502513615484531h36.206110113025716c3.589400215962996,0,6.502513615483622-2.913113399507893,6.502513615483622-6.502513615484531v-26.634270368588659c0-3.589400215973001-2.913113399520626-6.502513615494536-6.502513615483622-6.502513615494536Zm-16.51003171693992,24.565577624264733v4.176394449297732c0,.8839170607298-.71655635629304,1.600473417010107-1.600473417011926,1.600473417010107h-.000003200954779c-.883917060719796,0-1.600473417011017-.716556356280307-1.600473417011017-1.600473417010107v-4.176394449297732c-2.583026215530481-.768482227752429-4.393929766531983-3.313679179312203-4.014308617827737-6.216961044458003.301872298317903-2.308671085066635,2.073135185304636-4.254990262147658,4.347977890100992-4.751155287030087,3.678143447757066-.802238383978874,6.946801798633714,1.976045587778572,6.946801798633714,5.518758796943985,0,2.575736083102129-1.72697179379702,4.749445055287651-4.079521035929247,5.449357534544106Z"/>
      </g>
      <path class="cls-13" d="m313.221534119112221,507.771376891326327l-.000000001613444,88.244070783189272c-.000000000262844,5.867683248568028,4.755585735503701,10.633870856067915,10.633935500935877,10.633870856331669l214.13950567388838.000000009615178c5.867683248568028.000000000263753,10.633870856067915-4.766187606808671,10.633870856331669-10.633870855379428l.000000001612534-88.244070783187453c.000000000264663-5.878285119875727-4.766187606808671-10.633870856068825-10.633870855377609-10.633870856332578l-3.876535455437988-.000000000174623.000000000962245-21.426705135732846-21.426640491139551,21.4267051347706-188.836329728273085-.0000000084774c-5.878349765431267-.000000000263753-10.633935501624364,4.755585735503701-10.633935501889027,10.633870855377609Z"/>
      <line class="cls-13" x1="328.142270888251915" y1="515.384174069208711" x2="340.879128792108531" y2="515.384174069208711"/>
      <line class="cls-13" x1="350.22191630162888" y1="515.373317531758403" x2="410.699983793228967" y2="515.373317531758403"/>
      <line class="cls-13" x1="454.663382113731132" y1="515.373317531758403" x2="465.258698114710569" y2="515.373317531758403"/>
      <line class="cls-13" x1="472.185875871416101" y1="515.373317531758403" x2="496.025039490881682" y2="515.373317531758403"/>
      <line class="cls-13" x1="419.470929102812079" y1="515.373317531758403" x2="446.444345727361906" y2="515.373317531758403"/>
      <g>
        <g>
          <path class="cls-1" d="m486.572485502440031,479.823790469486994c-.61328125,0-1.21533203125-.0107421875-1.80712890625-.03173828125,0,0-.5439453125-.02197265625-.56103515625-.02197265625-.16064453125,0-.380859375-.01025390625-.58203125-.02001953125-.3701171875-.01025390625-.7509765625-.03173828125-1.14306640625-.064453125l-.77978515625-.05126953125c-.75341796875-.06396484375-1.48779296875-.13720703125-2.23291015625-.22119140625-.29736328125-.03125-.60107421875-.064453125-.89404296875-.10791015625-.72265625-.0927734375-1.462890625-.1884765625-2.18212890625-.3154296875-.17236328125-.01318359375-.42529296875-.0595703125-.66552734375-.10791015625l-.0908203125-.01513671875c-.27392578125-.04736328125-.55419921875-.09521484375-.826171875-.1513671875-.505859375-.0908203125-1.0263671875-.19677734375-1.55712890625-.31396484375l-.23681640625-.0537109375c-.1552734375-.0341796875-.31201171875-.0693359375-.47314453125-.11328125-.39306640625-.078125-.84912109375-.18701171875-1.31201171875-.29833984375l-.31298828125-.0751953125-.12548828125-.04541015625c-1.51318359375-.37646484375-3.099609375-.85205078125-4.8505859375-1.455078125-16.55029296875-5.75390625-30.0419921875-18.29443359375-37.01953125-34.40625-2.51220703125-5.78369140625-4.12744140625-11.92626953125-4.8017578125-18.2568359375l-.00537109375-.05908203125c-.03857421875-.34228515625-.0693359375-.69384765625-.099609375-1.04443359375-.16748046875-1.8251953125-.25244140625-3.70361328125-.25244140625-5.58154296875,0-34.62841796875,28.17724609375-62.80078125,62.8115234375-62.80078125,5.88623046875,0,11.71630859375.81494140625,17.32861328125,2.42138671875.12646484375.03125.28515625.0830078125.43017578125.1357421875.58984375.1689453125,1.2431640625.369140625,1.8857421875.580078125,7.6083984375,2.49755859375,14.583984375,6.38720703125,20.732421875,11.56103515625.38427734375.3115234375.76171875.65576171875,1.150390625,1.01171875l.1005859375.08984375c.0947265625.08349609375.1904296875.16943359375.28173828125.26025390625,13.26220703125,11.8369140625,20.89111328125,28.88720703125,20.89111328125,46.74072265625,0,4.45166015625-.47119140625,8.9072265625-1.39990234375,13.2431640625l-.0380859375.17138671875c-.125.56787109375-.25146484375,1.14306640625-.3955078125,1.70947265625l-.1005859375.392578125c-.11279296875.4423828125-.2255859375.88330078125-.3564453125,1.31787109375-4.7724609375,17.23486328125-16.75244140625,31.6640625-32.86279296875,39.5654296875-2.2412109375,1.09326171875-4.47998046875,2.03515625-6.65673828125,2.80126953125l-.9384765625.33349609375c-.205078125.06494140625-.37841796875.119140625-.54150390625.1826171875l-.06494140625.025390625-.06787109375.01611328125c-.11083984375.0263671875-.2109375.060546875-.3125.09423828125l-.2431640625.07763671875c-.18994140625.052734375-.369140625.109375-.5390625.16650390625-.69775390625.2177734375-1.3759765625.40869140625-2.06494140625.5888671875-.1953125.0546875-.39990234375.11083984375-.61669921875.15625l-.0712890625.02001953125c-.166015625.04443359375-.32666015625.0869140625-.4873046875.12255859375l-.5859375.14599609375c-.12158203125.02880859375-.85498046875.19873046875-.85498046875.19873046875h-.02490234375c-.10791015625.0283203125-.20654296875.048828125-.30908203125.06982421875l-.10693359375.02197265625c-.25146484375.05859375-.54052734375.1142578125-.8212890625.16796875l-.173828125.033203125c-.4013671875.08642578125-.8173828125.15869140625-1.23681640625.2314453125l-.353515625.0615234375c-.36279296875.06396484375-.73681640625.1279296875-1.1103515625.18115234375-.17919921875.0302734375-.3818359375.05859375-.5859375.08642578125-.17333984375.02392578125-.34765625.0478515625-.5244140625.07666015625-.09423828125.02001953125-.21435546875.03369140625-.32568359375.03369140625l-.16796875.0185546875c-.37890625.04736328125-.75048828125.09375-1.130859375.1318359375-.40673828125.05078125-.83740234375.09423828125-1.26806640625.12646484375l-.13720703125.0029296875c-.29052734375.03125-.677734375.05712890625-1.06640625.0830078125l-.56005859375.03857421875c-.14697265625.00244140625-.22119140625.009765625-.30078125.0166015625-.49755859375.0263671875-.9306640625.0478515625-1.3642578125.05810546875-.12158203125.009765625-.30126953125.02099609375-.46923828125.02099609375l-.3525390625.01025390625-1.2119140625.0107421875Z"/>
          <path class="cls-5" d="m486.572348173338469,355.211272158940119c5.905563354492188,0,11.62457275390625.828819274902344,17.053573608398438,2.382919311523438.12432861328125.031120300292969.2486572265625.072540283203125.36260986328125.114021301269531.642349243164062.186481475830078,1.284698486328125.383338928222656,1.91668701171875.590560913085938,7.54254150390625,2.476139068603516,14.453048706054688,6.371738433837891,20.4000244140625,11.375919342041016.383346557617188.310800552368164.746002197265625.642360687255859,1.11895751953125.984279632568359.11395263671875.103580474853516.23828125.207220077514648.352279663085938.321161270141602,12.6502685546875,11.293039321899414,20.596908569335938,27.724939227104187,20.596908569335938,46.032159805297852,0,4.475799560546875-.476608276367188,8.827199935913086-1.377975463867188,13.033599853515625-.13470458984375.611301422119141-.269393920898438,1.232917785644531-.424819946289062,1.844219207763672-.145004272460938.559459686279297-.279708862304688,1.118961334228516-.445510864257812,1.668041229248047-4.745101928710938,17.136417388916016-16.670150756835938,31.268299102783203-32.345779418945312,38.955921173095703-2.1239013671875,1.036056518554688-4.310043334960938,1.968460083007812-6.547897338867188,2.755897521972656-.321182250976562.113937377929688-.631973266601562.227882385253906-.932479858398438.33154296875-.196853637695312.062156677246094-.393707275390625.124320983886719-.5802001953125.19683837890625-.217514038085938.051795959472656-.404006958007812.124320983886719-.611236572265625.186500549316406-.186477661132812.051780700683594-.383316040039062.113937377929688-.56982421875.176101684570312-.6630859375.207237243652344-1.326171875.393714904785156-1.999664306640625.569816589355469-.186447143554688.051856994628906-.372955322265625.103660583496094-.569808959960938.14508056640625-.19683837890625.051780700683594-.383331298828125.1036376953125-.56982421875.145057678222656-.113937377929688.031044006347656-.248641967773438.062164306640625-.362594604492188.09320068359375-.186492919921875.041481018066406-.383331298828125.093284606933594-.580184936523438.13470458984375-.134689331054688.031097412109375-.259017944335938.062156677246094-.393707275390625.093276977539062-.051849365234375,0-.082901000976562.010360717773438-.12432861328125.020721435546875-.145065307617188.041419982910156-.269378662109375.062179565429688-.414443969726562.093215942382812-.310806274414062.072540283203125-.652725219726562.13470458984375-.973907470703125.196861267089844-.528396606445312.113937377929688-1.046417236328125.19683837890625-1.5748291015625.290122985839844-.352218627929688.062156677246094-.714859008789062.124320983886719-1.077468872070312.176116943359375-.372970581054688.062164306640625-.745941162109375.103584289550781-1.12933349609375.165740966796875-.051803588867188.010360717773438-.113937377929688.020736694335938-.165756225585938.020736694335938-.051788330078125,0-.11395263671875,0-.165740966796875.010360717773438-.414443969726562.051803588867188-.818527221679688.103584289550781-1.23291015625.14508056640625-.4144287109375.051780700683594-.828903198242188.09320068359375-1.243301391601562.124320983886719h-.062149047851562c-.55950927734375.051780700683594-1.129318237304688.082839965820312-1.699142456054688.124320983886719-.113937377929688,0-.2279052734375.010360717773438-.352310180664062.020736694335938-.41436767578125.020683288574219-.839187622070312.041419982910156-1.263946533203125.051780700683594-.145065307617188.010383605957031-.300430297851562.020683288574219-.445480346679688.020683288574219-.124343872070312,0-.238311767578125.0103759765625-.352310180664062.0103759765625h-.33154296875c-.290069580078125,0-.590499877929688.010360717773438-.880630493164062.010360717773438-.600936889648438,0-1.191497802734375-.010360717773438-1.771682739257812-.031036376953125-.165740966796875-.010383605957031-.33154296875-.010383605957031-.476531982421875-.020744323730469-.217605590820312,0-.445510864257812-.0103759765625-.652740478515625-.020736694335938-.372970581054688-.0103759765625-.735626220703125-.031059265136719-1.10858154296875-.062156677246094-.259017944335938-.020744323730469-.518051147460938-.031059265136719-.787429809570312-.051803588867188-.735641479492188-.062156677246094-1.4608154296875-.134681701660156-2.196441650390625-.217597961425781-.290130615234375-.031044006347656-.5802001953125-.062164306640625-.859939575195312-.103584289550781-.72528076171875-.093254089355469-1.450454711914062-.186477661132812-2.15496826171875-.310798645019531-.21759033203125-.020736694335938-.4351806640625-.062156677246094-.642410278320312-.1036376953125-.300430297851562-.051803588867188-.611236572265625-.103584289550781-.91168212890625-.165740966796875-.518020629882812-.093276977539062-1.025726318359375-.196861267089844-1.543777465820312-.310798645019531-.217529296875-.051864624023438-.435134887695312-.093284606933594-.663009643554688-.155441284179688-.50775146484375-.10357666015625-1.015411376953125-.227897644042969-1.533432006835938-.352218627929688-.020675659179688-.010383605957031-.041427612304688-.010383605957031-.062149047851562-.020759582519531-.062179565429688-.020721435546875-.124343872070312-.041481018066406-.176132202148438-.051780700683594-1.626617431640625-.404083251953125-3.201446533203125-.891059875488281-4.765853881835938-1.429779052734375-16.35943603515625-5.687942504882812-29.589874267578125-18.068881988525391-36.42791748046875-33.858440399169922-2.434722900390625-5.605121612548828-4.05096435546875-11.635002136230469-4.724441528320312-17.965322494506836v-.010358810424805c-.041419982910156-.35222053527832-.072517395019531-.714879989624023-.103561401367188-1.077480316162109-.165817260742188-1.802740097045898-.2486572265625-3.636579513549805-.2486572265625-5.491119384765625,0-34.12782096862793,27.673141479492188-61.801021575927734,61.81134033203125-61.801021575927734m0-2c-35.185699462890625,0-63.81134033203125,28.621021270751953-63.81134033203125,63.801021575927734,0,1.910739898681641.086479187011719,3.819839477539062.257057189941406,5.674320220947266.029731750488281.347660064697266.060791015625.706396102905273.100624084472656,1.056793212890625l.005760192871094.059425354003906c.684257507324219,6.431659698486328,2.325736999511719,12.672962188720703,4.878799438476562,18.550559997558594,7.087699890136719,16.366039276123047,20.794715881347656,29.105819702148438,37.605537414550781,34.950698852539062,1.758544921875.605583190917969,3.350448608398438,1.084136962890625,4.8692626953125,1.463951110839844l.0303955078125.015228271484375.042572021484375.0111083984375.027664184570312.013893127441406.224319458007812.053840637207031.165252685546875.039718627929688c.46331787109375.111434936523438.919662475585938.220794677734375,1.375640869140625.315139770507812.154312133789062.040397644042969.304931640625.074264526367188.454254150390625.107284545898438l.204238891601562.046218872070312c.568603515625.125373840332031,1.09356689453125.232513427734375,1.628204345703125.32916259765625.275665283203125.056465148925781.558807373046875.105422973632812.836090087890625.153038024902344l.089630126953125.015396118164062c.2154541015625.04290771484375.462738037109375.089347839355469.73150634765625.119163513183594.72686767578125.126052856445312,1.46234130859375.220634460449219,2.174362182617188.312179565429688.269729614257812.040275573730469.586807250976562.074859619140625.904006958007812.108795166015625.74298095703125.083786010742188,1.486541748046875.158103942871094,2.240798950195312.221839904785156.157333374023438.012161254882812.297134399414062.020561218261719.435577392578125.028785705566406.121047973632812.007179260253906.2408447265625.014137268066406.360595703125.023735046386719.4097900390625.0341796875.808563232421875.056526184082031,1.21258544921875.067764282226562.177764892578125.009346008300781.412246704101562.019561767578125.642608642578125.021270751953125.076675415039062.004249572753906.156890869140625.007148742675781.239089965820312.009811401367188.0582275390625.001876831054688.11822509765625.003517150878906.178207397460938.007255554199219l.026870727539062.001701354980469.026901245117188.000961303710938c.603500366210938.021499633789062,1.217819213867188.032295227050781,1.842926025390625.032295227050781.156631469726562,0,.3160400390625-.002700805664062.475433349609375-.005477905273438.1358642578125-.002395629882812.271728515625-.0048828125.405197143554688-.0048828125h.33154296875c.085220336914062,0,.170440673828125-.00311279296875.257476806640625-.006996154785156l.094833374023438-.003379821777344c.175872802734375,0,.36328125-.010185241699219.541046142578125-.0224609375.426254272460938-.0111083984375.85223388671875-.03173828125,1.26806640625-.052482604980469l.033355712890625-.001678466796875.03326416015625-.002761840820312c.084426879882812-.007080078125.135574340820312-.013298034667969.1866455078125-.013816833496094l.062301635742188-.000640869140625.082260131835938-.004638671875.547378540039062-.037643432617188c.372238159179688-.024864196777344.743072509765625-.049835205078125,1.10986328125-.082557678222656l.108627319335938-.00445556640625c.447128295898438-.033584594726562.894302368164062-.078262329101562,1.34149169921875-.134124755859375.341094970703125-.033561706542969.722137451171875-.081100463867188,1.110198974609375-.129722595214844l.087799072265625-.010993957519531c.156112670898438-.003494262695312.303817749023438-.019775390625.466659545898438-.050346374511719.15936279296875-.025405883789062.316848754882812-.046943664550781.473281860351562-.068519592285156.213272094726562-.029396057128906.424911499023438-.058837890625.636611938476562-.0941162109375.33843994140625-.047821044921875.722900390625-.113456726074219,1.096267700195312-.179359436035156l.351348876953125-.0611572265625c.432723999023438-.074783325195312.861740112304688-.149505615234375,1.2974853515625-.243461608886719l.144073486328125-.027122497558594c.290008544921875-.055419921875.587448120117188-.112876892089844.862823486328125-.177139282226562l.056365966796875-.011001586914062c.079437255859375-.016105651855469.156646728515625-.032249450683594.23529052734375-.05059814453125h.020599365234375l.222213745117188-.051338195800781.212570190429688-.050361633300781.180862426757812-.042861938476562c.092742919921875-.019119262695312.223739624023438-.050338745117188.3524169921875-.081298828125l.212020874023438-.049842834472656.045944213867188-.010215759277344.045394897460938-.012359619140625.140670776367188-.035980224609375.1597900390625-.041191101074219c.163299560546875-.037002563476562.3270263671875-.080032348632812.49591064453125-.124969482421875l.077484130859375-.020545959472656c.219451904296875-.048103332519531.429244995117188-.105247497558594.638702392578125-.163497924804688.727584838867188-.189994812011719,1.411331176757812-.384895324707031,2.06036376953125-.587738037109375.190460205078125-.063117980957031.353622436523438-.114997863769531.50830078125-.157958984375.131179809570312-.038902282714844.219497680664062-.067779541015625.307403564453125-.09674072265625.075393676757812-.024856567382812.149642944335938-.051620483398438.2320556640625-.071235656738281l.133560180664062-.031822204589844.127944946289062-.04974365234375c.146942138671875-.057136535644531.302490234375-.104721069335938.45758056640625-.153694152832031l.025115966796875-.007926940917969.024887084960938-.008598327636719c.199539184570312-.068817138671875.403472900390625-.141960144042969.611770629882812-.21673583984375l.337188720703125-.120559692382812c2.206680297851562-.776466369628906,4.481369018554688-1.733642578125,6.756072998046875-2.84326171875,16.3704833984375-8.028404235839844,28.5416259765625-22.687259674072266,33.396408081054688-40.219741821289062.122528076171875-.404018402099609.239120483398438-.858798980712891.355438232421875-1.315258026123047l.098617553710938-.384719848632812c.148971557617188-.585861206054688.2781982421875-1.171581268310547.405502319335938-1.7501220703125l.036407470703125-.165500640869141c.9462890625-4.41575813293457,1.424850463867188-8.941898345947266,1.424850463867188-13.463977813720703,0-18.121374845504761-7.73779296875-35.429189682006836-21.229049682617188-47.492038726806641-.092819213867188-.090152740478516-.189071655273438-.176435470581055-.284194946289062-.260461807250977l-.090591430664062-.080720901489258c-.355545043945312-.325958251953125-.76556396484375-.701839447021484-1.204742431640625-1.057918548583984-6.21820068359375-5.232841491699219-13.305130004882812-9.184700012207031-21.0357666015625-11.722599029541016-.607131958007812-.199069976806641-1.253753662109375-.398658752441406-1.923446655273438-.593742370605469-.145721435546875-.051422119140625-.300857543945312-.100746154785156-.456405639648438-.141166687011719-5.694305419921875-1.627277374267578-11.607833862304688-2.452373504638672-17.57684326171875-2.452373504638672h0Z"/>
        </g>
        <path class="cls-7" d="m546.995405407881663,430.045896512659965c-.134692920003545.61130350125768-.269385840007999,1.23291448888267-.424820204971184,1.844217990140351-.145000406369036.559449888862218-.279693326374399,1.118963013836947-.445498413815585,1.668042180220255-4.745111423132585,17.136417410726608-16.670177551951383,31.268297399782568-32.345777523702964,38.955911618048049-2.123911316516569,1.036060470115444-4.310046967906601,1.968476951553384-6.547909759468894,2.75589302661956-.32117621629186.113951475046633-.63198171010481.227902950091448-.93247971755045.331546938770771-.196854018767226.062161098762772-.393708037533543.124322197524634-.580191333820949.196854018766317-.217532227611628.051790376283861-.404015523899943.124322197525544-.61124026514517.186483296288316-.186483296288316.051790376282952-.383337315053723.113951475045724-.569820611341129.176112573807586-.663093877541542.207224741247046-1.326187755083083.393708037533543-1.999652355105354.569820611342038-.186483296285587.051853612395462-.372966592573903.103643988679323-.569820611340219.145063642483365-.196854018767226.051790376283861-.383337315054632.103643988679323-.569820611341129.145063642483365-.113951475046633.031048931325131-.248644395051087.062161098761862-.362595870095902.093210030086993-.186483296288316.041482889917461-.383337315054632.093273266199503-.580191333820949.134692920004454-.134692920004454.031112167436731-.259015117529998.062161098762772-.393708037533543.093273266199503-.051853612395462,0-.082902543720593.01037072247982-.124322197525544.02074144495964-.145063642482455.041419653803132-.269385840007999.062161098761862-.414449482491364.093210030086993-.31080549381295.072531821241682-.652723155062631.134692920003545-.973899371353582.196854018766317-.528400957537997.113951475045724-1.046431192596174.196854018767226-1.574832150134171.29012728496582-.352225147615172.062161098762772-.714884253823584.124322197525544-1.077480123919486.176112573809405-.372966592575722.062161098762772-.745933185150534.103580752565904-1.129333736315857.165741851328676-.051790376284771.01037072247891-.113951475047543.02074144495964-.165741851330495.02074144495964-.466239858774316.062161098760953-.932479717549541.113951475044814-1.398656340211346.155434364961366-.414449482493183.051790376282952-.828898964983637.093210030087903-1.24328521136249.124322197524634h-.062161098762772c-.559513124975638.051790376283861-1.129333736316767.082839307608992-1.699154347657895.124322197525544-.113951475045724,0-.227902950091448.01037072247891-.352288383729501.020741444957821-.414386246378854.020678208845311-.839206451350037.041419653804951-1.263963420207801.051790376283861-.145063642483365.01037072247891-.30043477133313.020678208846221-.445498413817404.020678208846221-.124322197523725,0-.238273672570358.01037072247891-.352288383727682.01037072247891h-.33154693877168c-.29006404885331,0-.59049882018644.010370722478001-.880626105153169.010370722478001-.600932778779679,0-1.191494835079538-.010370722478001-1.771686168900487-.031048931324221-.165741851328676-.01037072247891-.331546938770771-.01037072247891-.476547345140716-.020741444957821-.217595463725957,0-.445498413817404-.01037072247982-.652723155062631-.02074144495964-.372966592574812-.010370722478001-.735625698783224-.031048931324221-1.108592291358946-.062161098760953-.259015117529088-.02074144495873-.518030235057267-.03104893132604-.787416075066176-.051790376283861-.735625698783224-.062161098762772-1.460817438975027-.134692920005364-2.196443137757342-.217595463725047-.290127284966729-.031048931325131-.580191333821858-.062161098762772-.859947896308768-.103580752566813-.725254976303404-.093273266200413-1.450446716495208-.186483296287406-2.154960247840791-.31080549381295-.217595463725047-.020741444956911-.435190927450094-.062161098762772-.642415668696231-.103643988679323-.30043477133313-.051790376282042-.61124026514608-.103580752565904-.9116750364783-.165741851328676-.518030235059086-.093273266200413-1.025752983750863-.196854018766317-1.54378321880904-.31080549381204-.217532227611628-.051853612396371-.435127691336675-.093273266200413-.663030641429032-.155434364963185-.507722748691776-.103580752565904-1.015382261270133-.227902950090538-1.53341249632831-.352225147616082-.020678208846221-.01037072247891-.041419653804041-.01037072247891-.062161098762772-.020741444957821-.062161098762772-.02074144495873-.124322197524634-.041482889916551-.176112573808496-.051790376283861-1.626622526416213-.404078760011544-3.201454676549474-.891060063745499-4.765852868090406-1.429768507649896-16.359435294250943-5.687961863161036-29.589884497082494-18.068897128275239-36.427921541518117-33.858448575072543-2.434716810329519-5.605122555552953-4.050968614266822-11.635002079964579-4.724433214288183-17.965316375709335v-.01037072247982c.414449482492273-.953157926395761.932479717551359-1.937428020228253,1.56446142765526-2.932068836541475,6.205992098219212-9.728559754947128,18.131058227038011-3.926646416740368,18.131058227038011-3.926646416740368,0,0-2.569409730333064-13.302981024072324,8.226322662168968-19.198167628479496.642352432583721-.352288383729501,1.326124518971483-.673464600020452,2.061750217753797-.963591884987181.590562056300769-.238273672570358,1.212173043925759-.455805900183805,1.864896198987481-.642352432583721,1.409090298804585-.424756968858674,2.735214817775159-.787352838953666,3.957758584178919-1.098221568879126,15.913873644321029-4.071710059223733,17.18827102312207-.134692920003545,17.18827102312207-.134692920003545l.973899371353582.051853612395462h.01037072247891l28.470921483244638,1.450446716495208s1.885637643946211-.91173827259081,4.879804343137039-1.440139230128807c2.186135651391851-.404015523899034,4.952399400490322-.59049882018644,8.029468643402652-.051790376282952h.01037072247982c4.962770122969232.859947896307858,10.671473431088089,3.595162714083017,15.820663614234036,10.370975423644268,9.987638108589636,13.147609895222558,4.434369165432145,26.129477939115532,4.247822633031319,26.564605630453116.207224741247046-.113951475045724,2.818117361496661-1.51267105136958,6.444329006903899-1.585202872611262Z"/>
        <path class="cls-3" d="m500.455586796361786,449.21301520981342v28.035793791907963c-.134692920004454.031112167436731-.259015117529998.062161098762772-.393708037533543.093273266199503-.051853612395462,0-.082902543720593.01037072247982-.124322197525544.02074144495964-.145063642482455.041419653803132-.269385840007999.062161098761862-.414449482491364.093210030086993-.31080549381295.072531821241682-.652723155062631.134692920003545-.973899371353582.196854018766317-.528400957537997.113951475045724-1.046431192596174.196854018767226-1.574832150134171.29012728496582-.352225147615172.062161098762772-.714884253823584.124322197525544-1.077480123919486.176112573809405-.372966592575722.062161098762772-.745933185150534.103580752565904-1.129333736315857.165741851328676-.051790376284771.01037072247891-.113951475047543.02074144495964-.165741851330495.02074144495964-.466239858774316.062161098760953-.932479717549541.113951475044814-1.398656340211346.155434364961366-.414449482493183.051790376282952-.828898964983637.093210030087903-1.24328521136249.124322197524634h-.062161098762772c-.559513124975638.051790376283861-1.129333736316767.082839307608992-1.699154347657895.124322197525544-.113951475045724,0-.227902950091448.01037072247891-.352288383729501.020741444957821-.414386246378854.020678208845311-.839206451350037.041419653804951-1.263963420207801.051790376283861-.145063642483365.01037072247891-.30043477133313.020678208846221-.445498413817404.020678208846221-.124322197523725,0-.238273672570358.01037072247891-.352288383727682.01037072247891h-.33154693877168c-.29006404885331,0-.59049882018644.010370722478001-.880626105153169.010370722478001-.600932778779679,0-1.191494835079538-.010370722478001-1.771686168900487-.031048931324221-.165741851328676-.01037072247891-.331546938770771-.01037072247891-.476547345140716-.020741444957821-.217595463725957,0-.445498413817404-.01037072247982-.652723155062631-.02074144495964-.372966592574812-.010370722478001-.735625698783224-.031048931324221-1.108592291358946-.062161098760953-.259015117529088-.02074144495873-.518030235057267-.03104893132604-.787416075066176-.051790376283861-.735625698783224-.062161098762772-1.460817438975027-.134692920005364-2.196443137757342-.217595463725047-.290127284966729-.031048931325131-.580191333821858-.062161098762772-.859947896308768-.103580752566813-.725254976303404-.093273266200413-1.450446716495208-.186483296287406-2.154960247840791-.31080549381295-.217595463725047-.020741444956911-.435190927450094-.062161098762772-.642415668696231-.103643988679323-.30043477133313-.051790376282042-.61124026514608-.103580752565904-.9116750364783-.165741851328676-.518030235059086-.093273266200413-1.025752983750863-.196854018766317-1.54378321880904-.31080549381204-.217532227611628-.051853612396371-.435127691336675-.093273266200413-.663030641429032-.155434364963185-.507722748691776-.103580752565904-1.015382261270133-.227902950090538-1.53341249632831-.352225147616082-.020678208846221-.01037072247891-.041419653804041-.01037072247891-.062161098762772-.020741444957821v-27.683568644291881h29.248030071945323Z"/>
        <path class="cls-3" d="m483.537479007840375,457.085267430823478h-.056223722491268c-12.220594199254265,0-26.971327113264124-9.376332821490905-28.252252314947327-29.756291879649325l-.260427126137984-27.72255157440577c-.00534711392811-.101413210650207-.008146421516358-.203604116787574-.007647115670807-.305164739203065.082454833222982-16.771612652389194,12.576433968218225-27.787355497427598,28.520326546525212-27.787355498712714l.056223732491162-.000000000003638c15.992335156197441-.000000001285116,30.614083240602668,13.34557655648041,29.461250559078508,31.251147649516497l-1.665202762193076,26.993323255836003c-1.109293950768006,19.774738689256083-17.88169239378567,27.326892786622011-27.79604779665442,27.326892786622011Z"/>
        <path class="cls-3" d="m476.825082051622303,414.299585584836677l-3.844896485336903,12.86749888477425c-.447828051022952,1.498720958862577.729074544798095,2.990611782222913,2.359193256304934,2.990611782222913h3.143712785156822"/>
        <ellipse class="cls-19" cx="489.310160501651126" cy="416.378758611705507" rx="2.262990283114277" ry="3.566047630504272"/>
        <ellipse class="cls-19" cx="469.75102521429767" cy="416.378758611705507" rx="2.262990283116096" ry="3.566047630504272"/>
        <path class="cls-19" d="m481.821676643186038,405.353673804404934l10.472051522506263,1.0385949019892c.470944779738602.046707261351003.713563374041769-.526008910967903.338276848262467-.802038353492208-1.083597418193676-.797003811017021-2.931815456974618-1.845982587147773-5.381528829186209-2.088939739742273-2.456232658450972-.243603720979081-4.423244994706693.431602632334943-5.597258147808134,1.005589238209723-.416608933587668.203684215237445-.296954366038335.800635324108953.168458606225613.846793953035558Z"/>
        <path class="cls-19" d="m463.140686750308305,406.670783690241478l7.693567558273571-1.699221644646968c.428271565177056-.094589188670398.502588076938991-.652059246593126.108767508902929-.838717957113658-1.021415743425678-.484119319923593-2.700884817334554-1.029435925928738-4.564109473072676-.617919208894818-1.870011643085491.413015708978492-3.076266182328254,1.60236806807643-3.727958412227963,2.457074536045184-.255447369290778.335023971040755.067247878870148.792095413799871.489732818124139.698784274610261Z"/>
        <path class="cls-7" d="m519.274572117230491,388.892192467838868c-3.412941371807392-12.693220184764868-25.809702808803195-29.528250558651052-48.595242866967055-19.517155170024125-18.234546780759047,8.011562891409994-18.732276509884286,27.523075861381585-16.96645540190184,34.026184939240011.019732094489882-.019953075311605-.674076249847531-2.509134785787865,0,0,.032068080962745.119368005402976,0,0,0,0h0c12.05032526841751-11.172332486667074,14.313315551521555-25.878179867369909,14.313315551521555-25.878179867369909,0,0-1.190932474035435,10.586717080676863,13.275403901739992,18.517640938443947,16.390385660200081,8.985751284485559,24.837324819820424,7.409482023505007,24.837324819820424,7.409482023505007,0,0-.969320887172216,5.301590807901448,5.123553260761582,8.619490525768924l4.625577480864195-1.353979431610242s1.431815877321242-2.404914552864284,4.730397895743408-.657450081890602c0,0,1.721878434505015-9.764056933734537-1.343874641582261-21.166033876063011Z"/>
        <path class="cls-5" d="m527.424207950714845,370.65896601336226c-2.258604236520114,4.092451504182463-6.765441987081431,6.869085975759845-11.945744337664109,6.869085975759845-1.481622120046268,0-2.911327391583654-.227966186203957-4.237515146666738-.652723155060812h-.01037072247891c-2.952747045386786-.92210899507063-5.439317468111767-2.787005194058111-7.096988925852202-5.221785240500139-1.388348853846765-2.041008772795067-2.196443137758251-4.465418096757276-2.196443137758251-7.076247480894381,0-2.527990076528113.756303907628535-4.879867579249549,2.051379495273977-6.869085975761664.642352432583721.186483296287406,1.284704865166532.383337315054632,1.916686575270433.590562056300769,7.542550575782116,2.476136464131741,14.453056205347821,6.371733949547888,20.400033186037945,11.375923726322981.383337315054632.31080549381295.745996421263044.642352432582811,1.118963013837856.984270093833402Z"/>
        <ellipse class="cls-17" cx="519.059404516968925" cy="438.599867016980625" rx="7.237313340031278" ry="6.920202751661691"/>
        <ellipse class="cls-17" cx="458.827195892074542" cy="438.599867016980625" rx="7.23731334003287" ry="6.920202751661691"/>
        <path class="cls-15" d="m475.726716360210958,437.716332410375799s1.798113491993718,1.644432330788732,5.237382321048244,1.191663077945122c4.525980566213548-.595831538972561,5.078961406680719-2.648140173211686,5.078961406680719-2.648140173211686,0,0-1.990608988383428-3.237314916970718-5.746688116798396-2.581936668876551-4.173653332563845.728238547634646-4.569655610930567,4.038413764143115-4.569655610930567,4.038413764143115Z"/>
        <path class="cls-3" d="m509.299650078937702,414.540800589283208s4.333994477970009-5.80155432263382,11.800191968392028-2.451118100655549c7.181978024950695,3.429310433289174,6.070970638416838,13.569708776308289.680780049978239,16.489340860895936-5.091324696882111,2.757749414277896-11.334302795880831.881144466498881-13.372826198828989-3.497600269080976"/>
      </g>
    </g>
    <g>
      <path class="cls-12" d="m666.131139048652585,591.317412535540825l-76.584198045045014,132.647722070935743c-5.067749151367025,8.777599010181802,1.266937287841756,19.74959777291042,11.402435590576715,19.74959777291042h153.168396090095484c10.135498302734959,0,16.470184741944649-10.971998762727708,11.402435590576715-19.74959777291042l-76.584198045043195-132.647722070935743c-5.067749151368844-8.77759901018544-17.737122029791863-8.77759901018544-22.804871181160706,0Z"/>
      <path class="cls-1" d="m673.873913102852384,712.864691332537404c-.9833984375-1.0166015625-1.47412109375-2.27001953125-1.47412109375-3.76123046875,0-1.490234375.49072265625-2.7275390625,1.47412109375-3.7109375.9814453125-.9814453125,2.21875-1.47412109375,3.71044921875-1.47412109375,1.42333984375,0,2.62548828125.49267578125,3.60888671875,1.47412109375.9814453125.9833984375,1.47412109375,2.220703125,1.47412109375,3.7109375,0,1.4912109375-.49267578125,2.74462890625-1.47412109375,3.76123046875-.9833984375,1.0166015625-2.185546875,1.52490234375-3.60888671875,1.52490234375-1.49169921875,0-2.72900390625-.50830078125-3.71044921875-1.52490234375Zm7.2685546875-70.0439453125l-.9150390625,52.25341796875h-5.998046875l-.81298828125-52.25341796875h7.72607421875Z"/>
    </g>
  </g>
</svg>